<svg xmlns="http://www.w3.org/2000/svg" viewBox="0 0 300 300" width="300" height="300" role="img" aria-label="Roni">
  <title>Roni</title>
  <rect width="300" height="300" fill="#0F1419"/>
  <g transform="translate(26 116) scale(1.6447)">
    <path d="M 24 0 L 50 0 Q 56 0 59 5 L 72 28 Q 75 34 72 40 L 59 63 Q 56 68 50 68 L 24 68 Q 18 68 15 63 L 2 40 Q -1 34 2 28 L 15 5 Q 18 0 24 0 Z" fill="#F4F6F8"/>
    <path d="M 102 0 L 128 0 Q 134 0 137 5 L 150 28 Q 153 34 150 40 L 137 63 Q 134 68 128 68 L 102 68 Q 96 68 93 63 L 80 40 Q 77 34 80 28 L 93 5 Q 96 0 102 0 Z" fill="#F4F6F8"/>
    <rect x="56" y="26" width="40" height="16" fill="#F4F6F8"/>
    <circle cx="37" cy="32" r="13" fill="#0F1419"/>
    <circle cx="40.5" cy="28.5" r="4.8" fill="#3DD6E8"/>
    <circle cx="115" cy="32" r="13" fill="#0F1419"/>
    <circle cx="118.5" cy="28.5" r="4.8" fill="#3DD6E8"/>
  </g>
</svg>
